<svg xmlns="http://www.w3.org/2000/svg" width="215.13" height="132.508"><defs><linearGradient id="a" y1=".5" x2="1" y2=".5" gradientUnits="objectBoundingBox"><stop offset=".097" stop-color="#555554"/><stop offset=".942" stop-color="#111"/></linearGradient></defs><g data-name="Group 2"><path data-name="Path 1" d="M83.676 0 69.811 132.508l132.162-17.439 13.158-91.487Z" fill="#111"/><g data-name="Group 1"><path data-name="Path 2" d="m174.358 93.52 4.01-9.45h3.87a.465.465 0 0 1 .415.205.586.586 0 0 1 0 .533l-3.7 8.712h2.5l4.565-10.752a.851.851 0 0 0 .015-.772.746.746 0 0 0-.674-.311h-8.473l-5.025 11.835Z" fill="#fff"/><path data-name="Path 3" d="M191.215 96.834h-8.473l-5.023 11.834h2.5l4.01-9.449h3.87a.464.464 0 0 1 .415.2.58.58 0 0 1 0 .535l-3.7 8.71h2.5l4.563-10.752a.846.846 0 0 0 .015-.772.743.743 0 0 0-.677-.306Z" fill="#fff"/><path data-name="Path 4" d="m162.068 93.52 4.01-9.45h3.87a.465.465 0 0 1 .415.205.586.586 0 0 1 0 .533l-3.7 8.712h2.5l4.565-10.752a.851.851 0 0 0 .015-.772.746.746 0 0 0-.674-.311h-8.473l-5.025 11.835Z" fill="#fff"/><path data-name="Path 5" d="M198.309 81.996a.734.734 0 0 0-.657-.311h-7.6a1.5 1.5 0 0 0-1.238.841l-4.214 9.928a.855.855 0 0 0-.026.772.723.723 0 0 0 .653.294h7.649a1.466 1.466 0 0 0 1.222-.839l4.21-9.91a.845.845 0 0 0 .001-.775Zm-3.364 2.816-2.4 5.665a1.1 1.1 0 0 1-.934.636h-3.166a.513.513 0 0 1-.46-.231.521.521 0 0 1 0-.49l2.4-5.65a1.169 1.169 0 0 1 .957-.671h3.182a.483.483 0 0 1 .427.219.569.569 0 0 1-.006.522Z" fill="#fff"/><path data-name="Path 6" d="M179.588 97.143a.73.73 0 0 0-.657-.309h-7.6a1.5 1.5 0 0 0-1.238.839l-4.216 9.93a.854.854 0 0 0-.025.772.72.72 0 0 0 .653.293h7.654a1.465 1.465 0 0 0 1.222-.839l4.208-9.91a.842.842 0 0 0-.001-.776Zm-3.364 2.817-2.403 5.662a1.107 1.107 0 0 1-.934.637h-3.166a.513.513 0 0 1-.46-.231.524.524 0 0 1 0-.492l2.4-5.648a1.163 1.163 0 0 1 .956-.671h3.183a.478.478 0 0 1 .427.219.568.568 0 0 1-.003.525Z" fill="#fff"/><path data-name="Path 7" d="m136.811 96.834-2.521 5.944a1.4 1.4 0 0 1-.766.715l-4.878 2.257 3.785-8.916h-2.567l-5.018 11.834h2.646l7.5-3.439a2.689 2.689 0 0 0 1.311-1.331l3-7.062Z" fill="#fff"/><path data-name="Path 8" d="M150.528 96.834h-7.67a1.444 1.444 0 0 0-1.213.816l-4.673 11.018h2.511l.855-2.014h.129c.429-.19 3.75-1.7 5.058-2.3l.469-.222-1.927 4.537h2.523l4.563-10.747a.887.887 0 0 0 .052-.787.77.77 0 0 0-.677-.301Zm-2.762 3.127-.591 1.385-5.695 2.616 1.73-4.072a1.177 1.177 0 0 1 .957-.671h3.191a.462.462 0 0 1 .412.214.579.579 0 0 1-.004.528Z" fill="#fff"/><path data-name="Path 9" d="M163.096 96.834h-9.352l-1.013 2.388h3.358l-4.015 9.444h2.5l4.011-9.449h3.5Z" fill="#fff"/><path data-name="Path 10" d="m136.39 83.73 1.327-6.033h-8.1l-8.832 8.852 3.695-10.836h13.51l.614-2.763h-35.422l-1.043 2.763h13.025l-5.49 13.917-4.328-5.687 7.481-6.242h-6.256l-7.676 6.137 2.581-6.137h-9.144L85.617 93.52h9.228l2.322-5.672 4.27 5.671h19.89l6.151-5.73-1.025 5.73h7.8l6.424-5.669-.877 5.669h8.4l3.493-15.818h-8.451Z" fill="#fff"/><path data-name="Path 11" d="M161.903 81.685h-2.656l-5.023 11.834h2.66Z" fill="#e84400"/><path data-name="Path 12" d="m165.256 96.834-5.021 11.834h2.5l5.023-11.834Z" fill="#fff"/></g><path data-name="Path 13" d="M0 102.662V0h83.676Z" fill="#3d3d3c"/><path data-name="Path 14" d="M0 102.662 83.676 0 69.811 132.508Z" fill="url(#a)"/></g></svg>